<mxfile host="app.diagrams.net" agent="Mozilla/5.0 (Windows NT 10.0; Win64; x64) AppleWebKit/537.36 (KHTML, like Gecko) Chrome/129.0.0.0 Safari/537.36" version="26.2.14">
  <diagram name="第 1 页" id="NBELX72EvP4mYWvqCN1p">
    <mxGraphModel dx="1554" dy="822" grid="1" gridSize="10" guides="1" tooltips="1" connect="1" arrows="1" fold="1" page="1" pageScale="1" pageWidth="2339" pageHeight="3300" math="0" shadow="0">
      <root>
        <mxCell id="0" />
        <mxCell id="1" parent="0" />
        <mxCell id="X9o5-AmgWms8p3m6Zrc2-3" value="" style="rounded=0;whiteSpace=wrap;html=1;strokeWidth=1;fillColor=none;align=center;" vertex="1" parent="1">
          <mxGeometry x="260" y="560" width="170" height="260" as="geometry" />
        </mxCell>
        <mxCell id="X9o5-AmgWms8p3m6Zrc2-12" value="" style="ellipse;whiteSpace=wrap;html=1;gradientColor=none;fillColor=none;dashed=1;dashPattern=8 8;" vertex="1" parent="1">
          <mxGeometry x="270" y="650" width="150" height="120" as="geometry" />
        </mxCell>
        <mxCell id="X9o5-AmgWms8p3m6Zrc2-6" value="" style="rounded=0;whiteSpace=wrap;html=1;strokeWidth=1;fillColor=none;align=center;" vertex="1" parent="1">
          <mxGeometry x="150" y="390" width="300" height="440" as="geometry" />
        </mxCell>
        <mxCell id="X9o5-AmgWms8p3m6Zrc2-4" value="&lt;b&gt;数据资源请求者&lt;/b&gt;" style="text;html=1;align=center;verticalAlign=middle;whiteSpace=wrap;rounded=0;" vertex="1" parent="1">
          <mxGeometry x="297.5" y="780" width="95" height="30" as="geometry" />
        </mxCell>
        <mxCell id="X9o5-AmgWms8p3m6Zrc2-7" value="&lt;b&gt;可信任执行环境&lt;/b&gt;" style="text;html=1;align=center;verticalAlign=middle;whiteSpace=wrap;rounded=0;" vertex="1" parent="1">
          <mxGeometry x="245" y="410" width="110" height="30" as="geometry" />
        </mxCell>
        <mxCell id="X9o5-AmgWms8p3m6Zrc2-10" value="" style="group" vertex="1" connectable="0" parent="1">
          <mxGeometry x="301" y="467" width="130" height="40" as="geometry" />
        </mxCell>
        <mxCell id="X9o5-AmgWms8p3m6Zrc2-8" value="" style="rounded=0;whiteSpace=wrap;html=1;strokeWidth=1;fillColor=none;align=center;" vertex="1" parent="X9o5-AmgWms8p3m6Zrc2-10">
          <mxGeometry x="-7" width="130" height="40" as="geometry" />
        </mxCell>
        <mxCell id="X9o5-AmgWms8p3m6Zrc2-9" value="&lt;b&gt;数据应用&lt;/b&gt;" style="text;html=1;align=center;verticalAlign=middle;whiteSpace=wrap;rounded=0;" vertex="1" parent="X9o5-AmgWms8p3m6Zrc2-10">
          <mxGeometry x="36.03" y="8" width="57.94" height="24" as="geometry" />
        </mxCell>
        <mxCell id="X9o5-AmgWms8p3m6Zrc2-29" style="edgeStyle=orthogonalEdgeStyle;rounded=0;orthogonalLoop=1;jettySize=auto;html=1;exitX=1;exitY=0;exitDx=0;exitDy=0;entryX=0.5;entryY=1;entryDx=0;entryDy=0;strokeWidth=3;" edge="1" parent="1" source="X9o5-AmgWms8p3m6Zrc2-11" target="X9o5-AmgWms8p3m6Zrc2-24">
          <mxGeometry relative="1" as="geometry">
            <Array as="points">
              <mxPoint x="390" y="687" />
            </Array>
          </mxGeometry>
        </mxCell>
        <mxCell id="X9o5-AmgWms8p3m6Zrc2-11" value="&lt;b&gt;DHP数据解封层&lt;/b&gt;" style="ellipse;whiteSpace=wrap;html=1;gradientColor=none;fillColor=none;dashed=1;dashPattern=8 8;" vertex="1" parent="1">
          <mxGeometry x="281" y="683" width="130" height="30" as="geometry" />
        </mxCell>
        <mxCell id="X9o5-AmgWms8p3m6Zrc2-13" value="&lt;b&gt;NHP代理&lt;/b&gt;&lt;div&gt;&lt;b&gt;（NHP-Agent）&lt;/b&gt;&lt;/div&gt;" style="text;html=1;align=center;verticalAlign=middle;whiteSpace=wrap;rounded=0;" vertex="1" parent="1">
          <mxGeometry x="285.5" y="725" width="120" height="30" as="geometry" />
        </mxCell>
        <mxCell id="X9o5-AmgWms8p3m6Zrc2-14" value="" style="group" vertex="1" connectable="0" parent="1">
          <mxGeometry x="270" y="580" width="80" height="40" as="geometry" />
        </mxCell>
        <mxCell id="X9o5-AmgWms8p3m6Zrc2-20" value="" style="group" vertex="1" connectable="0" parent="X9o5-AmgWms8p3m6Zrc2-14">
          <mxGeometry width="80" height="40" as="geometry" />
        </mxCell>
        <mxCell id="X9o5-AmgWms8p3m6Zrc2-15" value="" style="rounded=0;whiteSpace=wrap;html=1;strokeWidth=1;fillColor=none;align=center;" vertex="1" parent="X9o5-AmgWms8p3m6Zrc2-20">
          <mxGeometry width="80" height="40" as="geometry" />
        </mxCell>
        <mxCell id="X9o5-AmgWms8p3m6Zrc2-16" value="&lt;b&gt;零信任数据对象ZTDO&lt;/b&gt;" style="text;html=1;align=center;verticalAlign=middle;whiteSpace=wrap;rounded=0;" vertex="1" parent="X9o5-AmgWms8p3m6Zrc2-20">
          <mxGeometry x="6" y="9" width="70" height="24" as="geometry" />
        </mxCell>
        <mxCell id="X9o5-AmgWms8p3m6Zrc2-22" value="" style="group" vertex="1" connectable="0" parent="1">
          <mxGeometry x="350" y="586" width="80" height="40" as="geometry" />
        </mxCell>
        <mxCell id="X9o5-AmgWms8p3m6Zrc2-23" value="" style="group" vertex="1" connectable="0" parent="X9o5-AmgWms8p3m6Zrc2-22">
          <mxGeometry width="80" height="40" as="geometry" />
        </mxCell>
        <mxCell id="X9o5-AmgWms8p3m6Zrc2-24" value="" style="rounded=0;whiteSpace=wrap;html=1;strokeWidth=1;fillColor=none;align=center;" vertex="1" parent="X9o5-AmgWms8p3m6Zrc2-23">
          <mxGeometry x="10" width="60" height="30" as="geometry" />
        </mxCell>
        <mxCell id="X9o5-AmgWms8p3m6Zrc2-25" value="&lt;b&gt;原始数据&lt;/b&gt;" style="text;html=1;align=center;verticalAlign=middle;whiteSpace=wrap;rounded=0;" vertex="1" parent="X9o5-AmgWms8p3m6Zrc2-23">
          <mxGeometry x="6" y="4" width="70" height="24" as="geometry" />
        </mxCell>
        <mxCell id="X9o5-AmgWms8p3m6Zrc2-28" style="edgeStyle=orthogonalEdgeStyle;rounded=0;orthogonalLoop=1;jettySize=auto;html=1;entryX=0;entryY=0;entryDx=0;entryDy=0;strokeWidth=3;" edge="1" parent="1" target="X9o5-AmgWms8p3m6Zrc2-11">
          <mxGeometry relative="1" as="geometry">
            <mxPoint x="300" y="620" as="sourcePoint" />
            <Array as="points">
              <mxPoint x="300" y="620" />
            </Array>
          </mxGeometry>
        </mxCell>
        <mxCell id="X9o5-AmgWms8p3m6Zrc2-30" style="edgeStyle=orthogonalEdgeStyle;rounded=0;orthogonalLoop=1;jettySize=auto;html=1;exitX=0.5;exitY=0;exitDx=0;exitDy=0;entryX=0.75;entryY=1;entryDx=0;entryDy=0;strokeWidth=3;" edge="1" parent="1" source="X9o5-AmgWms8p3m6Zrc2-25" target="X9o5-AmgWms8p3m6Zrc2-8">
          <mxGeometry relative="1" as="geometry" />
        </mxCell>
      </root>
    </mxGraphModel>
  </diagram>
</mxfile>
